<svg stroke-width="2px" width="24" height="24" viewBox="0 0 24 24" role="img" version="1.1" xmlns="http://www.w3.org/2000/svg" xmlns:xlink="http://www.w3.org/1999/xlink" class="sc-kAyceB iHwjMm"><svg width="14" height="14" viewBox="0 0 14 14" fill="none"><rect x="14" width="14" height="14" rx="7" transform="rotate(90 14 0)" fill="#FF4F0A" fill-opacity="0.67" stroke-width="0"></rect><path d="M6.27282 3.69565C6.27282 3.9047 6.27282 6.96487 6.27282 7.17391C6.27282 7.55791 6.59827 7.86957 7.00009 7.86957C7.40191 7.86957 7.72736 7.55791 7.72736 7.17391C7.72736 6.96487 7.72736 3.9047 7.72736 3.69565C7.72736 3.31165 7.40191 3 7.00009 3C6.59827 3 6.27282 3.31165 6.27282 3.69565ZM7.00009 8.91304C6.39754 8.91304 5.90918 9.38017 5.90918 9.95652C5.90918 10.5329 6.39754 11 7.00009 11C7.60264 11 8.091 10.5329 8.091 9.95652C8.091 9.38017 7.60264 8.91304 7.00009 8.91304Z" fill="white" stroke-width="0"></path></svg></svg>